# xmcd
#
# Track frame offsets:
#	150
#	31312
#	54652
#	89592
#	107718
#
# Disc length: 1954 seconds
#
# Revision: 1
# Processed by: cddbd v1.5.2PL0 Copyright (c) Steve Scherf et al.
# Submitted via: audiograbber 1.83.01
#
DISCID=3c07a005
DTITLE=09 Suomen kansansatuja - Tuhkatyttö
DYEAR=1900
DGENRE=
TTITLE0=Hyvä palkitaan hyvällä
TTITLE1=Tuhkatyttö
TTITLE2=Väkevä Matti
TTITLE3=Tynnytissä kasvanut tyttö
TTITLE4=Kalstaja, Eukko ja kultainen kala
EXTD=
EXTT0=
EXTT1=
EXTT2=
EXTT3=
EXTT4=
PLAYORDER=
